<svg xmlns="http://www.w3.org/2000/svg" width="512" height="512" viewBox="0 0 512 512" version="1.1">
    <path d="M 229.261 65.563 C 187.219 72.322, 150.153 90.316, 120.175 118.518 C 68.521 167.110, 47.607 252.115, 70.326 321.131 C 76.287 339.237, 88.572 363.078, 98.216 375.254 C 99.702 377.131, 100.614 380.103, 101.077 384.582 C 101.659 390.202, 102.247 391.669, 105.129 394.700 C 106.983 396.650, 109.794 399.052, 111.375 400.038 C 114.224 401.814, 114.289 401.803, 118.275 398.915 C 123.944 394.809, 129.272 394.914, 135.299 399.250 C 153.605 412.419, 158.777 415.747, 169.152 421.037 C 188.397 430.849, 209.579 437, 224.120 437 C 233.525 437, 237.023 434.951, 247.867 423.086 C 253.026 417.441, 256.928 414, 258.169 414 C 260.488 414, 275.324 417.606, 279 419.063 C 280.375 419.608, 282.546 421.661, 283.823 423.625 C 286.020 427.001, 286.375 427.164, 290.323 426.603 C 292.621 426.278, 296.875 425.727, 299.778 425.379 L 305.057 424.748 310.506 430.374 C 315.312 435.336, 316.421 436, 319.898 436 C 328.359 436, 353.334 425.111, 369.932 414.185 C 390.709 400.508, 409.889 381.138, 422.379 361.221 C 432.172 345.603, 442.148 320.220, 445.997 301.125 C 456.763 247.723, 442.319 185.150, 408.919 140.500 C 382.014 104.534, 338.394 77.124, 292.533 67.367 C 282.331 65.196, 277.304 64.751, 259.500 64.442 C 244.202 64.176, 235.991 64.481, 229.261 65.563 M 232 85.061 C 221.769 86.321, 205.445 90.472, 194 94.723 C 167.931 104.407, 146.091 118.712, 126.979 138.623 C 104.694 161.838, 89.251 193.526, 82.374 230.146 C 81.468 234.971, 80.594 246.738, 80.304 258 C 79.873 274.718, 80.102 279.328, 81.907 290.313 C 88.848 332.538, 112.768 372.691, 144 394.546 C 161.730 406.953, 188.352 418.394, 210.243 423.015 C 220.241 425.125, 232 425.647, 232 423.980 C 232 422.096, 223.170 405.355, 220.506 402.190 C 217.069 398.105, 212.762 397.012, 200.066 397.006 C 191.579 397.001, 188.836 396.615, 185.373 394.938 C 179.285 391.991, 173.222 385.705, 170.151 379.155 L 167.500 373.500 167.173 343.885 L 166.846 314.270 162.673 313.039 C 151.991 309.887, 140.799 300.457, 135.628 290.252 C 133.551 286.154, 131.635 284.214, 126.181 280.686 C 114.281 272.988, 107.148 259.659, 106.280 243.500 C 105.197 223.348, 113.132 207.192, 128.500 198.265 C 133.645 195.277, 134.138 194.601, 138.455 184.634 C 141.470 177.672, 150.911 167.925, 158.704 163.728 C 169.778 157.764, 187.049 155.470, 200.516 158.175 C 203.734 158.821, 210.511 161.460, 215.577 164.039 L 224.788 168.729 225.402 164.890 C 226.165 160.116, 230.703 154.806, 236.360 152.068 C 240.530 150.049, 242.029 150, 299.620 150 L 358.608 150 363.240 152.937 C 371.144 157.950, 370.947 157.064, 371.240 188.846 C 371.459 212.654, 371.735 217.223, 373 218.022 C 373.825 218.543, 381.071 218.976, 389.102 218.985 C 402.585 218.999, 403.958 219.172, 407.010 221.250 C 408.828 222.487, 411.257 224.770, 412.408 226.322 C 414.442 229.067, 414.508 230.315, 414.781 271.605 C 415.096 319.146, 415.129 318.890, 408.144 323.234 C 405.006 325.185, 402.732 325.569, 391.778 326 C 376.602 326.596, 377.020 326.312, 371.390 339.866 C 367.672 348.819, 364.261 354, 362.086 354 C 361.530 354, 358.304 351.527, 354.916 348.504 C 351.528 345.480, 347.123 342.531, 345.128 341.949 C 343.066 341.347, 335.242 341.022, 327 341.195 L 312.500 341.500 312 362.548 C 311.451 385.680, 311.268 386.405, 304.766 391.365 C 298.459 396.175, 297.006 396.390, 266.798 396.959 C 246.219 397.347, 237.753 397.844, 236.882 398.717 C 235.460 400.140, 237.158 409.466, 239.396 412.526 C 240.592 414.162, 241.076 413.779, 244.875 408.184 C 247.167 404.809, 249.881 401.599, 250.906 401.050 C 252.190 400.363, 255.065 400.488, 260.135 401.451 C 264.186 402.220, 270.875 403.134, 275 403.482 C 286.416 404.443, 286.958 404.653, 288.678 408.786 C 290.671 413.572, 291.386 413.966, 298.091 413.985 C 301.166 413.993, 305.891 414.670, 308.591 415.489 C 318.070 418.365, 325.656 416.750, 343.500 408.058 C 359.280 400.371, 371.155 391.847, 384 378.988 C 396.540 366.435, 404.249 355.869, 411.919 340.726 C 423.028 318.792, 428.725 296.730, 429.666 272 C 431.228 230.960, 419.432 188.416, 397.661 156.567 C 374.246 122.313, 329.762 93.880, 288 86.475 C 276.855 84.499, 243.417 83.654, 232 85.061 M 239.077 163.589 L 236 166.178 236 214.166 L 236 262.154 238.837 264.991 C 242.668 268.822, 246.347 269.239, 272.787 268.837 C 299.400 268.432, 298.307 268.934, 298.855 256.866 C 299.175 249.803, 298.949 248.422, 297.047 245.850 C 294.164 241.951, 294.747 239.075, 298.998 236.217 C 304.964 232.205, 305.142 229.057, 299.405 229.015 C 297.269 229, 294 226.164, 294 224.326 C 294 223.767, 294.947 222.453, 296.104 221.405 C 298.053 219.642, 300.374 219.474, 327.354 219.153 C 345.257 218.940, 356.982 218.410, 357.750 217.781 C 358.689 217.010, 359 210.553, 359 191.812 C 359 167.317, 358.598 163.767, 355.600 161.765 C 354.995 161.361, 329.222 161.024, 298.327 161.015 L 242.153 161 239.077 163.589 M 174.919 169.766 C 159.898 173.840, 148.645 184.423, 146.454 196.535 C 145.363 202.567, 144.478 203.628, 138.858 205.641 C 126.773 209.971, 119.192 221.376, 118.238 236.664 C 117.566 247.430, 119.741 255.917, 125.084 263.377 C 128.168 267.685, 130.475 269.561, 136.473 272.640 L 143.993 276.500 146.124 283 C 147.786 288.070, 149.382 290.603, 153.378 294.514 C 158.063 299.100, 165.113 302.666, 167.084 301.448 C 167.499 301.192, 168.337 298.657, 168.946 295.815 C 170.288 289.559, 172.504 285.839, 178.189 280.301 C 185.366 273.310, 191.914 270.964, 206.655 270.104 C 219.222 269.371, 219.296 269.353, 222.141 266.168 L 225 262.968 225 225.435 C 225 182.387, 225.398 184.497, 215.984 177.567 C 204.719 169.274, 188.260 166.147, 174.919 169.766 M 295.839 175.453 C 294.967 177.367, 295.002 178.298, 295.989 179.487 C 297.096 180.821, 300.718 180.997, 322.278 180.767 C 344.831 180.526, 347.391 180.328, 348.387 178.750 C 349.191 177.474, 349.191 176.526, 348.387 175.250 C 347.391 173.671, 344.824 173.474, 322.128 173.233 L 296.973 172.966 295.839 175.453 M 248.869 175.510 C 247.421 176.296, 245.991 177.581, 245.691 178.364 C 245.390 179.147, 245.025 195.871, 244.879 215.527 L 244.613 251.265 247.900 254.202 L 251.186 257.138 266.568 256.819 C 288.383 256.367, 286.376 260.059, 287 219.225 C 287.275 201.226, 287.186 184.925, 286.803 183 C 286.401 180.982, 284.807 178.336, 283.037 176.750 C 279.988 174.018, 279.877 174, 265.734 174.040 C 255.349 174.069, 250.788 174.467, 248.869 175.510 M 259.856 184.734 C 253.220 185.416, 253.211 185.454, 252.847 215.656 C 252.447 248.856, 251.699 247, 265.464 247 C 279.436 247, 278.445 249.216, 278.795 217.190 C 279.090 190.262, 279.087 190.213, 276.795 187.707 C 274.383 185.070, 267.811 183.916, 259.856 184.734 M 296.571 189.571 C 294.700 191.443, 294.539 194.139, 296.200 195.800 C 297.067 196.667, 304.117 197, 321.629 197 C 342.321 197, 346.086 196.771, 347.429 195.429 C 349.489 193.368, 349.414 191.684, 347.171 189.655 C 345.578 188.213, 342.299 188, 321.743 188 C 301.622 188, 297.911 188.232, 296.571 189.571 M 296.571 205.571 C 295.707 206.436, 295 207.754, 295 208.500 C 295 209.246, 295.707 210.564, 296.571 211.429 C 297.911 212.768, 301.612 213, 321.637 213 C 335.920 213, 345.890 212.594, 347.066 211.965 C 348.163 211.377, 349 209.879, 349 208.500 C 349 207.121, 348.163 205.623, 347.066 205.035 C 345.890 204.406, 335.920 204, 321.637 204 C 301.612 204, 297.911 204.232, 296.571 205.571 M 171.977 233.023 C 170.381 234.619, 170.175 235.458, 171 237 C 172.830 240.419, 175.549 241, 189.712 241 C 204.750 241, 208 240.048, 208 235.643 C 208 231.386, 206.488 231, 189.800 231 C 175.274 231, 173.837 231.163, 171.977 233.023 M 351.500 231.732 C 317.238 231.985, 316.463 232.035, 314.750 234.106 C 312.435 236.904, 312.524 240.675, 314.934 241.965 C 315.998 242.534, 320.069 243, 323.980 243 C 330.197 243, 331.400 243.309, 333.545 245.455 L 336 247.909 336 270.520 C 336 284.194, 335.591 293.896, 334.965 295.066 C 334.069 296.739, 332.812 297, 325.656 297 C 313.569 297, 313.573 296.994, 313.835 312.125 C 314.123 328.715, 313.192 328, 334.526 328 L 350.830 328 353.662 331 C 355.219 332.650, 357.003 334, 357.625 334 C 358.990 334, 360.484 330.521, 362.541 322.557 C 363.384 319.289, 364.563 316.026, 365.160 315.307 C 365.960 314.344, 369.965 314, 380.400 314 C 391.593 314, 395.020 313.674, 396.777 312.443 L 399 310.887 399 272.500 L 399 234.113 396.777 232.557 C 395.465 231.637, 392.906 231.097, 390.527 231.237 C 388.312 231.367, 370.750 231.590, 351.500 231.732 M 356.268 244.739 C 346.234 245.030, 344.921 245.279, 343.962 247.070 C 340.635 253.287, 348.203 255.242, 368.268 253.347 C 374.363 252.771, 375.096 252.465, 375.647 250.269 C 376.917 245.209, 373.519 244.239, 356.268 244.739 M 312.223 255.557 C 310.183 256.985, 310.002 257.912, 310.019 266.807 C 310.037 275.810, 310.249 276.837, 313.007 281.228 C 316.261 286.409, 319.595 287.961, 323.574 286.148 C 325.980 285.052, 326 284.921, 326 270.557 C 326 257.258, 325.841 255.986, 324.066 255.035 C 321.194 253.498, 314.757 253.782, 312.223 255.557 M 347.696 260.721 C 345.906 260.991, 344.472 262.064, 343.732 263.689 C 342.719 265.912, 342.867 266.474, 344.897 268.117 C 346.988 269.811, 349.100 270, 365.920 270 C 386.203 270, 388.488 269.476, 387.845 264.969 C 387.245 260.764, 383.927 260.017, 366.500 260.165 C 357.700 260.239, 349.238 260.489, 347.696 260.721 M 343.932 279.126 C 343.106 280.670, 343.091 281.904, 343.876 283.626 C 344.937 285.955, 345.215 286, 358.544 286 C 373.028 286, 376 285.262, 376 281.665 C 376 277.441, 374.423 277, 359.335 277 C 345.811 277, 345.011 277.110, 343.932 279.126 M 197.149 281.997 C 192.297 283.143, 185.914 288.087, 182.778 293.126 L 180.056 297.500 179.778 335.066 L 179.500 372.631 182.366 376.401 C 188.433 384.381, 185.441 383.992, 240.734 383.996 L 289.968 384 293.234 381.083 L 296.500 378.166 296.781 335.124 C 297.092 287.401, 297.025 286.815, 290.810 283.026 C 287.617 281.079, 285.963 281.011, 244 281.106 C 220.075 281.160, 198.992 281.561, 197.149 281.997 M 344.667 293.667 C 344.300 294.033, 344 295.553, 344 297.044 C 344 301.873, 345.777 302.383, 361.821 302.156 C 369.895 302.043, 377.264 301.713, 378.199 301.424 C 380.797 300.619, 381.456 297.161, 379.435 294.928 C 377.849 293.175, 376.220 293, 361.512 293 C 352.614 293, 345.033 293.300, 344.667 293.667 M 212.763 297.514 C 203.344 300.973, 194.363 309.772, 190.911 318.921 C 187.933 326.813, 188.557 338.349, 192.364 345.786 C 198.095 356.982, 206.614 363.126, 219.062 365.041 C 222.603 365.585, 227.128 366.741, 229.118 367.608 C 232.035 368.879, 235.780 369.118, 248.458 368.842 C 263.450 368.516, 264.266 368.393, 266.040 366.201 C 267.889 363.915, 267.694 361.217, 265.573 359.765 C 264.983 359.361, 259.438 359.024, 253.250 359.015 C 247.063 359.007, 242 358.635, 242 358.188 C 242 357.741, 243.257 356.447, 244.793 355.311 C 247.224 353.514, 249.685 353.151, 263.819 352.508 C 278.040 351.861, 280.174 351.544, 281.026 349.951 C 282.369 347.442, 282.253 346.396, 280.429 344.571 C 279.169 343.311, 276.394 343, 266.429 343 C 253.411 343, 252.379 342.598, 255.264 338.654 C 256.299 337.238, 258.791 336.817, 269.014 336.327 C 275.881 335.998, 282.063 335.285, 282.750 334.742 C 284.639 333.250, 284.248 329.203, 282.103 328.055 C 280.952 327.439, 276.485 327.285, 270.737 327.662 C 258.511 328.465, 256 327.863, 256 324.128 C 256 321.319, 256.068 321.288, 263.651 320.647 C 267.859 320.291, 273.619 320, 276.451 320 C 282.037 320, 284 318.810, 284 315.422 C 284 311.201, 281.979 310.710, 266.743 311.230 L 252.500 311.716 246.500 306.020 C 239.142 299.036, 231.807 295.967, 222.712 296.070 C 219.296 296.109, 214.818 296.759, 212.763 297.514 M 250.040 297.452 C 248.300 299.549, 249.138 302.246, 252.009 303.788 C 255.007 305.398, 280.559 304.611, 282.690 302.843 C 284.327 301.484, 284.380 298.780, 282.800 297.200 C 280.914 295.314, 251.628 295.539, 250.040 297.452 M 214.422 307.418 C 202.181 312.749, 196.934 325.873, 202.374 337.556 C 210.569 355.156, 235.085 356.607, 243.505 339.989 C 248.312 330.504, 247.861 323.250, 241.958 315.101 C 236.273 307.253, 223.187 303.602, 214.422 307.418"
          stroke="none" fill="black" fill-rule="evenodd"/>
</svg>