<?xml version="1.0" encoding="utf-8"?>
<!-- Generator: Adobe Illustrator 24.0.1, SVG Export Plug-In . SVG Version: 6.00 Build 0)  -->
<svg version="1.1" xmlns="http://www.w3.org/2000/svg" x="0px" y="0px"
     viewBox="0 0 219.1 242.3" style="enable-background:new 0 0 219.1 242.3;" xml:space="preserve">
<style type="text/css">
	.st0{display:none;}
	.st1{display:inline;fill:#F7F8FC;}
	.st2{display:inline;}
	.st3{fill:#F7F8FC;}
	.st4{fill:none;stroke:#0561FC;stroke-width:10.0172;stroke-linejoin:round;}
	.st5{fill:#C5E1F9;}
	.st6{fill:none;stroke:#0561FC;stroke-width:10.0172;stroke-linejoin:bevel;}
	.st7{fill:#FFFFFF;stroke:#0561FC;stroke-width:10.0172;stroke-linejoin:round;}
	.st8{fill:#9AC7F7;}
	.st9{fill:#FFFFFF;stroke:#0561FC;stroke-width:10.0172;}
	.st10{fill:#FFFFFF;}
	.st11{fill:none;stroke:#0561FC;stroke-width:10.0172;}
	.st12{fill:none;stroke:#FFFFFF;stroke-width:10.0172;}
	.st13{fill:none;stroke:#0561FC;stroke-width:10.0172;stroke-linecap:round;stroke-miterlimit:10;}
	.st14{fill:#9AC7F7;stroke:#0561FC;stroke-width:10.0172;}
	.st15{fill:#0561FC;}
	.st16{fill:none;stroke:#0561FC;stroke-width:10.0172;stroke-linecap:round;stroke-linejoin:round;}
	.st17{fill:none;stroke:#0561FC;stroke-width:10.0172;stroke-dasharray:9.848,9.848;}
	.st18{fill:none;stroke:#0561FC;stroke-width:10.0172;stroke-dasharray:9.7757,9.7757;}
	.st19{fill:none;stroke:#0561FC;stroke-width:10.0172;stroke-dasharray:9.929,9.929;}
	.st20{fill:none;stroke:#0561FC;stroke-width:10.0172;stroke-dasharray:10.2413,10.2413;}
	.st21{fill:#9AC7F7;stroke:#0561FC;stroke-width:10.0172;stroke-linecap:round;stroke-linejoin:round;}
	.st22{fill:none;stroke:#0561FC;stroke-width:10.0172;stroke-dasharray:10.276,10.276;}
	.st23{fill:#FFFFFF;stroke:#0561FC;stroke-width:10.0172;stroke-linecap:round;stroke-linejoin:round;}
</style>
    <g id="Layer_2">
</g>
    <g id="Layer_3">
</g>
    <g id="Layer_4">
	<g>
		<path class="st8" d="M166.6,104c0,24.1-19.5,43.7-43.6,43.7c-24.1,0-43.6-19.6-43.6-43.7c0-24.1,19.5-43.7,43.6-43.7
			C147.1,60.3,166.6,79.9,166.6,104z"/>
        <g>
			<path class="st4" d="M187.8,242.3V159c16.3-16.3,26.3-38.9,26.3-63.8c0-49.8-40.3-90.3-90.1-90.3C74.3,5,34,45.4,34,95.3
				c0,1.4,0,2.7,0.1,4.1l-12.6,21.8L5,149.9h20.9v35.6c0,13.4,10.9,24.3,24.3,24.3h38.5v32.4"/>
		</g>
        <g>
			<g>
				<polyline class="st11" points="99.1,53.4 70.2,53.4 70.2,82.3 				"/>
                <line class="st11" x1="74.2" y1="57.4" x2="123" y2="106.3"/>
			</g>
            <g>
				<polyline class="st11" points="175.8,82.3 175.8,53.4 146.9,53.4 				"/>
                <line class="st11" x1="171.8" y1="57.4" x2="123.1" y2="106.2"/>
			</g>
		</g>
        <line class="st11" x1="123" y1="106" x2="123" y2="242.3"/>
	</g>
</g>
</svg>
